<svg preserveAspectRatio="none" overflow="visible" style="display: block;" width="12" height="12" viewBox="0 0 12 12" fill="none" xmlns="http://www.w3.org/2000/svg">
<g id="Frame 20">
<rect x="0.3" y="0.3" width="11.4" height="11.4" rx="5.7" stroke="white" stroke-width="0.6"/>
<path id="!" d="M6.53736 3.13316L6.44595 7.13842H5.55405L5.46541 3.13316H6.53736ZM6 8.86683C5.83196 8.86683 5.68793 8.80774 5.5679 8.68956C5.44972 8.57137 5.39062 8.42734 5.39062 8.25745C5.39062 8.09126 5.44972 7.94907 5.5679 7.83089C5.68793 7.71271 5.83196 7.65362 6 7.65362C6.16435 7.65362 6.30653 7.71271 6.42656 7.83089C6.54844 7.94907 6.60938 8.09126 6.60938 8.25745C6.60938 8.3701 6.58075 8.47258 6.52351 8.56491C6.46811 8.65724 6.39425 8.7311 6.30192 8.7865C6.21143 8.84005 6.1108 8.86683 6 8.86683Z" fill="white"/>
</g>
</svg>
